# xmcd CD database file
#
# Track frame offsets:
#	150
#	33607
#	52844
#	88287
#	112422
#	131372
#	138622
#
# Disc length: 2376 seconds
#
# Revision: 0
# Processed by: cddbd v1.5.2PL0 Copyright (c) Steve Scherf et al.
# Submitted via: CDex 1.51
#
DISCID=66094607
DTITLE=Pagan Altar - Judgement of the Dead
DYEAR=2005
DGENRE=Doom Metal
TTITLE0=Pagan Altar
TTITLE1=In the Wake of Armadeus
TTITLE2=Judgement of the Dead
TTITLE3=The Black Mass
TTITLE4=Night Rider
TTITLE5=The Dance of the Banshee
TTITLE6=Reincarnation
EXTD=YEAR: 2005
EXTT0=
EXTT1=
EXTT2=
EXTT3=
EXTT4=
EXTT5=
EXTT6=
PLAYORDER=
